<svg width="120" height="24" viewBox="0 0 120 24" fill="none" xmlns="http://www.w3.org/2000/svg">
<path d="M41.228 14.307H43.152V17.999C42.658 18.3717 42.086 18.6577 41.436 18.857C40.786 19.0563 40.1317 19.156 39.473 19.156C38.5283 19.156 37.679 18.9567 36.925 18.558C36.171 18.1507 35.5773 17.5917 35.144 16.881C34.7193 16.1617 34.507 15.3513 34.507 14.45C34.507 13.5487 34.7193 12.7427 35.144 12.032C35.5773 11.3127 36.1753 10.7537 36.938 10.355C37.7007 9.94767 38.5587 9.744 39.512 9.744C40.3093 9.744 41.033 9.87833 41.683 10.147C42.333 10.4157 42.879 10.8057 43.321 11.317L41.969 12.565C41.319 11.8803 40.5347 11.538 39.616 11.538C39.0353 11.538 38.5197 11.6593 38.069 11.902C37.6183 12.1447 37.2673 12.487 37.016 12.929C36.7647 13.371 36.639 13.878 36.639 14.45C36.639 15.0133 36.7647 15.516 37.016 15.958C37.2673 16.4 37.614 16.7467 38.056 16.998C38.5067 17.2407 39.018 17.362 39.59 17.362C40.1967 17.362 40.7427 17.232 41.228 16.972V14.307ZM50.9063 19L49.1513 16.465H49.0473H47.2143V19H45.1083V9.9H49.0473C49.8533 9.9 50.551 10.0343 51.1403 10.303C51.7383 10.5717 52.1976 10.953 52.5183 11.447C52.839 11.941 52.9993 12.526 52.9993 13.202C52.9993 13.878 52.8346 14.463 52.5053 14.957C52.1846 15.4423 51.7253 15.815 51.1273 16.075L53.1683 19H50.9063ZM50.8673 13.202C50.8673 12.6907 50.7026 12.3007 50.3733 12.032C50.044 11.7547 49.563 11.616 48.9303 11.616H47.2143V14.788H48.9303C49.563 14.788 50.044 14.6493 50.3733 14.372C50.7026 14.0947 50.8673 13.7047 50.8673 13.202ZM60.6609 17.05H56.4359L55.6299 19H53.4719L57.5279 9.9H59.6079L63.6769 19H61.4669L60.6609 17.05ZM59.9979 15.451L58.5549 11.967L57.1119 15.451H59.9979ZM68.849 19.156C67.9217 19.156 67.081 18.9567 66.327 18.558C65.5817 18.1507 64.9924 17.5917 64.559 16.881C64.1344 16.1617 63.922 15.3513 63.922 14.45C63.922 13.5487 64.1344 12.7427 64.559 12.032C64.9924 11.3127 65.5817 10.7537 66.327 10.355C67.081 9.94767 67.926 9.744 68.862 9.744C69.6507 9.744 70.3614 9.88267 70.994 10.16C71.6354 10.4373 72.1727 10.836 72.606 11.356L71.254 12.604C70.6387 11.8933 69.876 11.538 68.966 11.538C68.4027 11.538 67.9 11.6637 67.458 11.915C67.016 12.1577 66.6694 12.5 66.418 12.942C66.1754 13.384 66.054 13.8867 66.054 14.45C66.054 15.0133 66.1754 15.516 66.418 15.958C66.6694 16.4 67.016 16.7467 67.458 16.998C67.9 17.2407 68.4027 17.362 68.966 17.362C69.876 17.362 70.6387 17.0023 71.254 16.283L72.606 17.531C72.1727 18.0597 71.6354 18.4627 70.994 18.74C70.3527 19.0173 69.6377 19.156 68.849 19.156ZM81.0742 17.31V19H74.0282V9.9H80.9052V11.59H76.1212V13.566H80.3462V15.204H76.1212V17.31H81.0742ZM86.6889 9.9C87.4949 9.9 88.1926 10.0343 88.7819 10.303C89.3799 10.5717 89.8392 10.953 90.1599 11.447C90.4806 11.941 90.6409 12.526 90.6409 13.202C90.6409 13.8693 90.4806 14.4543 90.1599 14.957C89.8392 15.451 89.3799 15.8323 88.7819 16.101C88.1926 16.361 87.4949 16.491 86.6889 16.491H84.8559V19H82.7499V9.9H86.6889ZM86.5719 14.775C87.2046 14.775 87.6856 14.6407 88.0149 14.372C88.3442 14.0947 88.5089 13.7047 88.5089 13.202C88.5089 12.6907 88.3442 12.3007 88.0149 12.032C87.6856 11.7547 87.2046 11.616 86.5719 11.616H84.8559V14.775H86.5719ZM97.6804 17.05H93.4554L92.6494 19H90.4914L94.5474 9.9H96.6274L100.696 19H98.4864L97.6804 17.05ZM97.0174 15.451L95.5744 11.967L94.1314 15.451H97.0174ZM103.068 11.616H100.156V9.9H108.086V11.616H105.174V19H103.068V11.616ZM117.566 9.9V19H115.46V15.269H111.326V19H109.22V9.9H111.326V13.488H115.46V9.9H117.566Z" fill="#006CA2"/>
<g clip-path="url(#clip0)">
<path d="M8.82092 19.1663H19.5442V24H8.82092V19.1663Z" fill="#006CA2"/>
<path d="M18.0667 8.39256V1.81506H10.587V8.39256H2.26233V19.7251H25.9086V8.39256H18.0667Z" fill="#006CA2"/>
<path d="M25.4413 6.91874H21.4265C20.9727 6.91874 20.5681 6.86999 20.311 6.69374C20.0607 6.52124 19.9891 6.18562 19.9824 5.92124V2.47124C19.9824 1.44937 18.9854 0.61499 17.7694 0.61499H10.8418C9.6235 0.61499 8.6265 1.44937 8.6265 2.47124V5.92124C8.62203 6.18562 8.54826 6.52124 8.30013 6.69374C8.04306 6.87187 7.63845 6.91874 7.18466 6.91874H3.17208C1.95155 6.91874 0.956787 7.75312 0.956787 8.77687V24H10.5959V21.5662C10.5959 20.9962 11.1481 20.5294 11.8299 20.5294H16.7813C17.4609 20.5294 18.0175 20.9962 18.0175 21.5662V24H27.6588V8.77687C27.6566 7.75312 26.6596 6.91874 25.4413 6.91874V6.91874ZM6.45591 17.835H3.70188V14.8912H6.45591V17.835ZM6.45591 13.1569H3.70188V10.2131H6.45591V13.1569ZM11.0698 17.835H8.31578V14.8912H11.0698V17.835V17.835ZM11.0698 13.1569H8.31578V10.2131H11.0698V13.1569V13.1569ZM15.6815 17.835H12.9252V14.8912H15.6815V17.835V17.835ZM15.6815 13.1569H12.9252V10.2131H15.6815V13.1569V13.1569ZM20.2931 17.835H17.5413V14.8912H20.2931V17.835V17.835ZM20.2931 13.1569H17.5413V10.2131H20.2931V13.1569V13.1569ZM24.907 17.835H22.153V14.8912H24.907V17.835ZM24.907 13.1569H22.153V10.2131H24.907V13.1569Z" fill="#38B5ED"/>
<path d="M16.7633 5.10006C16.7633 5.31006 16.5599 5.48256 16.3095 5.48256H15.5674C15.317 5.48256 15.1114 5.65506 15.1114 5.86506V6.48756C15.1114 6.69756 14.9057 6.87006 14.6553 6.87006H13.9579C13.7075 6.87006 13.5019 6.69756 13.5019 6.48756V5.86506C13.5019 5.65506 13.2962 5.48256 13.0458 5.48256H12.3037C12.0533 5.48256 11.8477 5.31006 11.8477 5.10006V4.51506C11.8477 4.30506 12.0533 4.13256 12.3037 4.13256H13.0458C13.2962 4.13256 13.5019 3.96006 13.5019 3.75006V3.12756C13.5019 2.91756 13.7075 2.74506 13.9579 2.74506H14.6553C14.9057 2.74506 15.1114 2.91756 15.1114 3.12756V3.75006C15.1114 3.96006 15.317 4.13256 15.5674 4.13256H16.3095C16.5599 4.13256 16.7633 4.30506 16.7633 4.51506V5.10006Z" fill="#ED6C30"/>
</g>
<defs>
<clipPath id="clip0">
<rect width="28.6133" height="24" fill="white"/>
</clipPath>
</defs>
</svg>
